<?xml version="1.0" encoding="utf-8"?>
<!-- Generator: Adobe Illustrator 15.1.0, SVG Export Plug-In . SVG Version: 6.00 Build 0)  -->
<!DOCTYPE svg PUBLIC "-//W3C//DTD SVG 1.1//EN" "http://www.w3.org/Graphics/SVG/1.1/DTD/svg11.dtd">
<svg version="1.1" xmlns="http://www.w3.org/2000/svg" xmlns:xlink="http://www.w3.org/1999/xlink" x="0px" y="0px" width="768px"
	 height="768px" viewBox="128 0 768 768" enable-background="new 128 0 768 768" xml:space="preserve">
<g id="Logo_FIXED">
	<title>Twitter_Logo_Blue</title>
</g>
<g id="Layer_2" display="none">
	<g display="inline">
		<g>
			<path fill="#010101" d="M650.087,1.606c-92.059,0-184.115,0-276.173,0c-160.023,2.85-241.483,84.262-244.308,244.308
				c0,92.058,0,184.115,0,276.173c2.866,160.515,84.779,241.975,245.825,244.307c91.553,0,183.104,0,274.656,0
				c160.019-2.851,241.456-84.286,244.307-244.307c0-92.059,0-184.115,0-276.173C891.543,85.895,810.107,4.457,650.087,1.606z
				 M751.755,675.348c-50.994,26.852-157.185,21.244-236.72,21.244c-127.838,0-248.357,10.278-292.865-71.319
				c-29.25-53.622-22.762-157.102-22.762-238.237c0-81.848-8.672-181.364,19.727-239.755c30.331-62.367,90.53-70.281,176.022-74.354
				c51.221-2.438,117.213-1.517,179.058-1.517c104.982,0,190.9,4.141,227.616,69.802c21.593,38.619,22.761,140.252,22.761,213.958
				C824.592,495.816,839.674,629.056,751.755,675.348z"/>
			<path fill="#010101" d="M704.714,135.14c-18.55,3.889-28.766,17.015-31.865,24.279c-20.231,47.398,29.586,78.306,63.731,63.732
				C781.578,203.947,764.649,122.576,704.714,135.14z"/>
			<path fill="#010101" d="M496.826,188.251c-59.705,4.901-103.879,32.465-133.535,65.25
				c-30.197,33.385-52.897,83.242-47.04,147.191c10.038,109.614,95.453,188.538,210.924,179.058
				c56.501-4.639,98.604-27.915,132.017-63.731c30.585-32.788,55.007-84.135,50.076-147.192
				C700.826,260.906,613.718,178.654,496.826,188.251z M493.791,509.947c-61.142-6.864-116.765-63.748-107.738-144.157
				c4.066-36.228,18.539-51.609,36.418-69.802c18.215-18.536,40.553-32.514,71.319-36.418
				c50.749-6.442,85.736,12.174,110.773,39.453c12.96,14.12,30.467,40.787,33.384,66.767
				C647.941,454.813,578.763,519.487,493.791,509.947z"/>
		</g>
	</g>
</g>
<g id="Layer_3">
	<g>
		<title>flogo-Hex-RGB-MedGrey-114</title>
		<path d="M853.625-0.436h-683.25C146.972-0.436,128,18.536,128,41.939v683.25c0,23.402,18.972,42.375,42.375,42.375l0,0h367.898
			V470.537h-99.772V354.326h99.772v-85.288c0-99.233,60.632-153.196,149.02-153.196c29.88-0.08,59.744,1.427,89.465,4.514v103.411
			h-61.036c-48.168,0-57.465,22.838-57.465,56.455v74.105H773.39l-15.023,116.211H658.257v297.027h195.368
			c23.403,0,42.375-18.973,42.375-42.375l0,0V41.939C896,18.536,877.028-0.436,853.625-0.436L853.625-0.436z"/>
	</g>
</g>
<g id="Layer_4" display="none">
	<path display="inline" d="M369.067,697.053c290.735,0,449.754-240.871,449.754-449.753c0-6.842,0-13.653-0.462-20.433
		c30.936-22.376,57.64-50.083,78.862-81.82c-28.85,12.783-59.453,21.166-90.79,24.869c32.999-19.754,57.695-50.825,69.494-87.429
		c-31.028,18.412-64.975,31.388-100.373,38.368C715.689,57.2,615.558,54.126,551.904,113.99
		c-41.052,38.607-58.471,96.135-45.729,151.029c-127.095-6.371-245.51-66.402-325.773-165.152
		c-41.955,72.226-20.525,164.624,48.938,211.01c-25.155-0.746-49.762-7.532-71.743-19.787c0,0.647,0,1.326,0,2.003
		c0.021,75.245,53.061,140.052,126.814,154.952c-23.271,6.347-47.688,7.274-71.374,2.712
		c20.708,64.392,80.052,108.502,147.679,109.773c-55.973,43.989-125.118,67.869-196.309,67.797
		c-12.577-0.023-25.142-0.785-37.628-2.278c72.287,46.388,156.397,70.993,242.288,70.879"/>
</g>
</svg>
