<?xml version="1.0" encoding="utf-8"?>
<!-- Generator: Adobe Illustrator 15.1.0, SVG Export Plug-In . SVG Version: 6.00 Build 0)  -->
<!DOCTYPE svg PUBLIC "-//W3C//DTD SVG 1.1//EN" "http://www.w3.org/Graphics/SVG/1.1/DTD/svg11.dtd">
<svg version="1.1" id="Layer_1" xmlns="http://www.w3.org/2000/svg" xmlns:xlink="http://www.w3.org/1999/xlink" x="0px" y="0px"
	 width="161.418px" height="373.428px" viewBox="0 6.419 161.418 373.428" enable-background="new 0 6.419 161.418 373.428"
	 xml:space="preserve">
<linearGradient id="SVGID_1_" gradientUnits="userSpaceOnUse" x1="-49.8105" y1="208.8501" x2="169.1775" y2="167.7897">
	<stop  offset="0" style="stop-color:#7F7F7F"/>
	<stop  offset="0.5" style="stop-color:#333333"/>
</linearGradient>
<path fill="url(#SVGID_1_)" d="M0.071,377.658c16.642-25.616,30.406-53.861,40.911-83.954c9.916-28.374,17.129-58.884,21.441-90.688
	c4.058-29.96,5.589-61.239,4.553-92.966c-0.512-15.55-1.646-31.15-3.366-46.368c-0.891-7.858-1.935-15.588-3.104-22.975
	c-0.619-3.915-1.275-7.741-1.951-11.373c-0.852-4.546-1.577-8.075-2.285-11.102c-1.212-5.185,1.998-10.354,7.146-11.558
	c0.72-0.167,1.458-0.253,2.191-0.253c4.473,0,8.31,3.047,9.331,7.408c0.024,0.105,0.057,0.26,0.081,0.38
	c0.821,4.298,1.439,8.346,1.983,12.081c0.549,3.801,1.071,7.815,1.555,11.938c0.901,7.712,1.657,15.74,2.245,23.864
	c1.135,15.725,1.649,31.795,1.529,47.768c-0.255,32.532-3.119,64.474-8.51,94.939c-5.715,32.279-14.332,63.098-25.606,91.6
	c-11.902,30.12-27.015,58.195-44.918,83.451l-1.793-1.216L0.071,377.658z"/>
<linearGradient id="SVGID_2_" gradientUnits="userSpaceOnUse" x1="109.813" y1="185.9419" x2="100.8407" y2="343.9874">
	<stop  offset="0" style="stop-color:#7F7F7F"/>
	<stop  offset="0.5" style="stop-color:#333333"/>
</linearGradient>
<path fill="url(#SVGID_2_)" d="M72.822,318.012c-0.9,0-1.809-0.073-2.703-0.216c-0.206-0.028-0.491-0.083-0.767-0.139l-0.744-0.167
	c-0.702-0.178-1.341-0.398-1.949-0.669c-3.03-1.315-4.805-3.748-5.593-5.08c-0.974-1.631-1.673-3.418-2.195-5.614
	c-0.879-3.813-0.927-7.425-0.872-10.148c0.181-6.577,1.298-12.785,2.478-18.518c1.502-6.998,3.119-12.663,5.092-17.846l0.444-1.111
	c0.164-0.412,0.367-0.86,0.536-1.226l0.984-2.074l1.985-4.037l3.991-7.97L89.63,211.5c22.107-43.209,44.324-86.287,65.038-126.403
	c0.59-1.143,1.737-1.842,3.004-1.842c0.533,0,1.069,0.13,1.545,0.376c1.509,0.779,2.203,2.567,1.615,4.157L97.651,259.16
	l-3.67-1.319l42.247-120.322c-11.709,23.677-25.024,50.653-38.473,78.048L82.18,247.479l-3.833,7.98l-1.875,3.979l-0.887,1.946
	c-0.126,0.286-0.229,0.523-0.339,0.808l-0.379,0.981c-1.702,4.604-3.161,9.956-4.452,16.326c-0.919,4.675-1.985,10.805-2.06,16.665
	c-0.032,3.03,0.195,5.484,0.693,7.496c0.259,1.05,0.618,1.973,1.011,2.602c0.284,0.452,0.564,0.739,0.829,0.85
	c0.075,0.032,0.145,0.057,0.22,0.073l0.338,0.071l0.301,0.049c0.294,0.041,0.612,0.066,0.923,0.066c0.093,0,0.187-0.003,0.28-0.007
	c0.84-0.034,1.72-0.229,2.626-0.579c1.763-0.676,3.697-1.953,5.752-3.797c3.927-3.553,7.436-8.184,10.644-12.656
	c1.048-1.462,2.726-2.323,4.499-2.323c1.157,0,2.267,0.357,3.211,1.032c1.196,0.858,1.987,2.131,2.228,3.586
	c0.24,1.453-0.101,2.912-0.96,4.109c-3.601,4.874-7.485,9.938-12.449,14.34c-2.006,1.74-5.117,4.211-9.144,5.721
	c-2.011,0.747-4.044,1.153-6.05,1.206C73.151,318.009,72.986,318.012,72.822,318.012z"/>
</svg>
