<?xml version="1.0" encoding="utf-8"?>
<!-- Generator: Adobe Illustrator 15.1.0, SVG Export Plug-In . SVG Version: 6.00 Build 0)  -->
<!DOCTYPE svg PUBLIC "-//W3C//DTD SVG 1.1//EN" "http://www.w3.org/Graphics/SVG/1.1/DTD/svg11.dtd">
<svg version="1.1" id="Layer_1" xmlns="http://www.w3.org/2000/svg" xmlns:xlink="http://www.w3.org/1999/xlink" x="0px" y="0px"
	 width="161.419px" height="379.847px" viewBox="0 0 161.419 379.847" enable-background="new 0 0 161.419 379.847"
	 xml:space="preserve">
<linearGradient id="SVGID_1_" gradientUnits="userSpaceOnUse" x1="-50.9321" y1="205.5493" x2="168.3038" y2="164.4424">
	<stop  offset="0" style="stop-color:#7F7F7F"/>
	<stop  offset="0.5" style="stop-color:#333333"/>
</linearGradient>
<path fill="url(#SVGID_1_)" d="M73.229,6.368c0.805,4.213,1.423,8.215,2.019,12.299c0.586,4.064,1.111,8.126,1.587,12.188
	c0.949,8.124,1.705,16.252,2.294,24.387c1.174,16.268,1.686,32.558,1.563,48.833c-0.256,32.546-3.038,65.055-8.698,97.041
	c-5.662,31.975-14.237,63.438-26.154,93.561C33.941,324.792,18.65,353.539,0,379.847c17.57-27.044,31.595-56.239,42.17-86.537
	c10.592-30.308,17.786-61.696,22.085-93.404c4.296-31.719,5.729-63.772,4.687-95.685c-0.526-15.957-1.674-31.886-3.465-47.717
	c-0.896-7.916-1.953-15.807-3.195-23.651c-0.62-3.922-1.287-7.831-2.01-11.719c-0.723-3.864-1.503-7.803-2.361-11.476l-0.009-0.038
	c-0.985-4.214,1.632-8.428,5.846-9.413s8.428,1.632,9.414,5.846C73.185,6.148,73.21,6.272,73.229,6.368z"/>
<linearGradient id="SVGID_2_" gradientUnits="userSpaceOnUse" x1="110.8638" y1="182.3662" x2="101.8115" y2="341.8215">
	<stop  offset="0" style="stop-color:#7F7F7F"/>
	<stop  offset="0.5" style="stop-color:#333333"/>
</linearGradient>
<path fill="url(#SVGID_2_)" d="M96.528,256.53l62.062-176.751l2.669,1.151c-21.577,43.534-43.132,87.086-64.543,130.696
	l-15.975,32.737l-3.938,8.196l-1.93,4.094l-0.92,2.021c-0.153,0.347-0.268,0.615-0.392,0.935l-0.39,1.008
	c-2.01,5.44-3.483,11.258-4.661,17.069c-1.147,5.84-2.079,11.735-2.151,17.464c-0.03,2.85,0.15,5.694,0.77,8.195
	c0.307,1.242,0.742,2.384,1.281,3.247c0.547,0.871,1.135,1.392,1.779,1.659c0.165,0.069,0.337,0.128,0.524,0.173l0.454,0.096
	l0.358,0.057c0.543,0.079,1.087,0.108,1.636,0.084c1.094-0.043,2.208-0.293,3.326-0.726c2.243-0.86,4.455-2.425,6.514-4.271
	c4.132-3.737,7.74-8.469,11.206-13.304l0.016-0.021c1.176-1.641,3.459-2.018,5.101-0.842s2.019,3.461,0.842,5.102
	c-0.006,0.009-0.024,0.033-0.031,0.044c-3.672,4.969-7.5,9.952-12.438,14.331c-2.486,2.157-5.299,4.196-8.755,5.491
	c-1.719,0.641-3.61,1.061-5.554,1.111c-0.97,0.028-1.947-0.036-2.905-0.188c-0.229-0.032-0.503-0.088-0.764-0.14l-0.658-0.149
	c-0.55-0.14-1.098-0.327-1.628-0.563c-2.162-0.938-3.813-2.684-4.828-4.4c-1.038-1.737-1.623-3.498-2.027-5.202
	c-0.787-3.418-0.905-6.694-0.84-9.905c0.177-6.432,1.254-12.575,2.501-18.632c1.304-6.072,2.873-12.057,5.133-17.994l0.443-1.111
	c0.155-0.388,0.349-0.813,0.508-1.158l1.001-2.109l2.023-4.115l4.087-8.162l16.528-32.499c22.136-43.265,44.404-86.454,66.7-129.632
	l0.01-0.02c0.369-0.715,1.246-0.994,1.961-0.625c0.66,0.341,0.948,1.115,0.697,1.795L96.528,256.53z"/>
</svg>
