<?xml version="1.0" encoding="utf-8"?>
<!-- Generator: Adobe Illustrator 16.0.0, SVG Export Plug-In . SVG Version: 6.00 Build 0)  -->
<!DOCTYPE svg PUBLIC "-//W3C//DTD SVG 1.1//EN" "http://www.w3.org/Graphics/SVG/1.1/DTD/svg11.dtd">
<svg version="1.1" id="Layer_1" xmlns="http://www.w3.org/2000/svg" xmlns:xlink="http://www.w3.org/1999/xlink" x="0px" y="0px"
	 width="75.176px" height="151.256px" viewBox="0 0 75.176 151.256" enable-background="new 0 0 75.176 151.256"
	 xml:space="preserve">
<g>
	<g>
		<path fill="#7F7F7F" d="M26.376,151.256c-7.323,0-13.733-2.532-18.544-7.331C2.854,138.962,0,131.795,0,124.262
			c0-18.889,15.035-36.293,31.617-54.551c-6.702-5.213-13.161-9.352-17.431-11.752l-8.169-4.592L47.969,0.364l12.545,9.932
			L29.945,48.911c3.491,2.301,7.84,5.34,12.446,8.972c10.735-11.771,18.713-20.485,18.713-20.485L72.904,48.2
			c-0.002,0.003-7.865,8.594-18.48,20.233C69.208,83,76.148,97.287,75.066,110.971c-2.334,29.608-26.635,40.224-48.599,40.284
			C26.438,151.256,26.406,151.256,26.376,151.256z M43.661,80.248C29.143,96.229,16,111.299,16,124.262
			c0,3.313,1.141,6.351,3.129,8.333c1.78,1.774,4.213,2.667,7.293,2.661c11.461-0.032,30.947-3.393,32.694-25.543
			C59.896,99.841,52.768,89.342,43.661,80.248z"/>
	</g>
</g>
</svg>
