<?xml version="1.0" encoding="utf-8"?>
<!-- Generator: Adobe Illustrator 16.0.0, SVG Export Plug-In . SVG Version: 6.00 Build 0)  -->
<!DOCTYPE svg PUBLIC "-//W3C//DTD SVG 1.1//EN" "http://www.w3.org/Graphics/SVG/1.1/DTD/svg11.dtd">
<svg version="1.1" id="Layer_1" xmlns="http://www.w3.org/2000/svg" xmlns:xlink="http://www.w3.org/1999/xlink" x="0px" y="0px"
	 width="282.64px" height="27.392px" viewBox="0 0 282.64 27.392" enable-background="new 0 0 282.64 27.392" xml:space="preserve">
<g opacity="0.5">
	<path fill="#7F7F7F" d="M3.377,21.338c-1.145-0.334-2.042-0.758-2.69-1.273l1.145-2.176c0.667,0.478,1.478,0.859,2.433,1.145
		c0.954,0.287,1.917,0.43,2.891,0.43c2.404,0,3.606-0.687,3.606-2.061c0-0.458-0.162-0.82-0.486-1.088
		c-0.325-0.267-0.73-0.463-1.217-0.586c-0.486-0.125-1.178-0.263-2.075-0.416c-1.222-0.189-2.218-0.41-2.991-0.658
		s-1.436-0.668-1.989-1.259c-0.554-0.591-0.83-1.421-0.83-2.49c0-1.374,0.573-2.476,1.717-3.306c1.145-0.83,2.681-1.245,4.608-1.245
		c1.011,0,2.022,0.124,3.034,0.372c1.011,0.248,1.841,0.582,2.49,1.002L11.85,9.903C10.609,9.102,9.149,8.701,7.47,8.701
		c-1.164,0-2.051,0.191-2.662,0.572c-0.611,0.383-0.916,0.888-0.916,1.518c0,0.496,0.172,0.887,0.515,1.174
		c0.344,0.285,0.768,0.496,1.274,0.629c0.505,0.134,1.216,0.286,2.132,0.458c1.221,0.21,2.208,0.435,2.962,0.673
		s1.398,0.645,1.932,1.217s0.801,1.373,0.801,2.404c0,1.373-0.586,2.466-1.76,3.276c-1.173,0.812-2.771,1.217-4.794,1.217
		C5.714,21.839,4.522,21.672,3.377,21.338z"/>
	<path fill="#7F7F7F" d="M18.06,3.063c-0.353-0.344-0.529-0.763-0.529-1.26c0-0.495,0.176-0.92,0.529-1.273
		C18.413,0.177,18.856,0,19.391,0c0.534,0,0.978,0.168,1.331,0.501c0.353,0.335,0.529,0.749,0.529,1.245
		c0,0.516-0.177,0.949-0.529,1.303c-0.354,0.354-0.797,0.529-1.331,0.529C18.856,3.578,18.413,3.406,18.06,3.063z M18.017,6.498
		h2.748v15.169h-2.748V6.498z"/>
	<path fill="#7F7F7F" d="M50.259,8.014c1.117,1.107,1.675,2.748,1.675,4.924v8.729h-2.748v-8.415c0-1.469-0.339-2.576-1.016-3.32
		s-1.646-1.115-2.905-1.115c-1.393,0-2.5,0.434-3.32,1.302c-0.821,0.868-1.23,2.113-1.23,3.735v7.813h-2.748v-8.415
		c0-1.469-0.339-2.576-1.016-3.32s-1.646-1.115-2.905-1.115c-1.393,0-2.5,0.434-3.32,1.302c-0.821,0.868-1.231,2.113-1.231,3.735
		v7.813h-2.748V6.498h2.633v2.26c0.553-0.781,1.278-1.377,2.175-1.788c0.896-0.41,1.917-0.615,3.063-0.615
		c1.183,0,2.232,0.239,3.148,0.716s1.622,1.173,2.118,2.089c0.572-0.878,1.369-1.564,2.39-2.061c1.021-0.496,2.17-0.744,3.449-0.744
		C47.631,6.354,49.143,6.908,50.259,8.014z"/>
	<path fill="#7F7F7F" d="M60.455,20.837c-1.202-0.667-2.142-1.589-2.819-2.762c-0.678-1.174-1.016-2.505-1.016-3.993
		s0.338-2.818,1.016-3.992c0.677-1.174,1.617-2.09,2.819-2.748s2.557-0.987,4.064-0.987s2.857,0.329,4.05,0.987
		C69.761,8,70.696,8.916,71.374,10.09s1.016,2.504,1.016,3.992s-0.339,2.819-1.016,3.993c-0.677,1.173-1.612,2.095-2.805,2.762
		c-1.193,0.668-2.543,1.002-4.05,1.002S61.657,21.505,60.455,20.837z M67.138,18.762c0.773-0.447,1.378-1.078,1.817-1.889
		s0.658-1.741,0.658-2.791c0-1.049-0.219-1.979-0.658-2.791c-0.439-0.811-1.044-1.436-1.817-1.874s-1.646-0.659-2.619-0.659
		S62.673,8.979,61.9,9.417s-1.384,1.063-1.832,1.874c-0.448,0.813-0.672,1.742-0.672,2.791c0,1.05,0.224,1.98,0.672,2.791
		s1.059,1.441,1.832,1.889c0.773,0.449,1.646,0.673,2.619,0.673S66.365,19.211,67.138,18.762z"/>
	<path fill="#7F7F7F" d="M89.892,8.029c1.135,1.115,1.703,2.752,1.703,4.908v8.729h-2.748v-8.415c0-1.469-0.354-2.576-1.059-3.32
		c-0.707-0.744-1.717-1.115-3.034-1.115c-1.488,0-2.662,0.434-3.521,1.302c-0.858,0.868-1.288,2.113-1.288,3.735v7.813h-2.748V6.498
		h2.633v2.289c0.553-0.782,1.302-1.383,2.247-1.803c0.945-0.42,2.018-0.63,3.22-0.63C87.225,6.354,88.756,6.912,89.892,8.029z"/>
	<path fill="#7F7F7F" d="M110.342,5.181v1.317h4.408v2.26h-4.351v12.909h-2.748V8.758h-2.576v-2.26h2.576V5.152
		c0-1.508,0.438-2.7,1.316-3.578c0.877-0.877,2.108-1.316,3.692-1.316c0.61,0,1.183,0.076,1.717,0.229
		c0.534,0.153,0.992,0.373,1.374,0.658l-0.83,2.09c-0.63-0.477-1.336-0.715-2.118-0.715C111.163,2.52,110.342,3.406,110.342,5.181z"
		/>
	<path fill="#7F7F7F" d="M129.247,7.9c1.117,1.029,1.675,2.566,1.675,4.607v9.159h-2.605v-2.003
		c-0.458,0.705-1.112,1.244-1.96,1.617c-0.849,0.371-1.856,0.558-3.02,0.558c-1.699,0-3.058-0.41-4.079-1.231
		c-1.021-0.82-1.531-1.898-1.531-3.234c0-1.335,0.486-2.408,1.459-3.219c0.973-0.812,2.519-1.217,4.637-1.217h4.351v-0.544
		c0-1.183-0.343-2.089-1.03-2.72c-0.687-0.629-1.699-0.943-3.034-0.943c-0.897,0-1.775,0.147-2.633,0.443
		c-0.859,0.296-1.584,0.691-2.175,1.188l-1.145-2.061c0.782-0.63,1.717-1.111,2.805-1.445c1.087-0.334,2.242-0.501,3.463-0.501
		C126.523,6.354,128.131,6.869,129.247,7.9z M126.514,19.02c0.763-0.467,1.317-1.131,1.66-1.989v-2.118h-4.236
		c-2.328,0-3.492,0.783-3.492,2.348c0,0.763,0.295,1.363,0.887,1.803c0.591,0.439,1.412,0.658,2.461,0.658
		C124.844,19.721,125.75,19.487,126.514,19.02z"/>
	<path fill="#7F7F7F" d="M149.488,8.029c1.135,1.115,1.703,2.752,1.703,4.908v8.729h-2.748v-8.415c0-1.469-0.354-2.576-1.059-3.32
		c-0.707-0.744-1.717-1.115-3.034-1.115c-1.488,0-2.662,0.434-3.521,1.302c-0.858,0.868-1.288,2.113-1.288,3.735v7.813h-2.748V6.498
		h2.633v2.289c0.553-0.782,1.302-1.383,2.247-1.803c0.945-0.42,2.018-0.63,3.22-0.63C146.822,6.354,148.353,6.912,149.488,8.029z"/>
	<path fill="#7F7F7F" d="M181.158,0.43v21.237h-2.633v-2.404c-0.61,0.84-1.384,1.479-2.318,1.918
		c-0.936,0.438-1.966,0.658-3.091,0.658c-1.47,0-2.786-0.324-3.95-0.974c-1.164-0.648-2.075-1.56-2.733-2.732
		c-0.658-1.174-0.987-2.523-0.987-4.051c0-1.526,0.329-2.871,0.987-4.035s1.569-2.07,2.733-2.719s2.48-0.974,3.95-0.974
		c1.087,0,2.089,0.205,3.005,0.615c0.916,0.411,1.679,1.017,2.29,1.817V0.43H181.158z M175.949,18.762
		c0.782-0.447,1.393-1.078,1.832-1.889c0.438-0.811,0.658-1.741,0.658-2.791c0-1.049-0.22-1.979-0.658-2.791
		c-0.439-0.811-1.05-1.436-1.832-1.874s-1.65-0.659-2.604-0.659c-0.973,0-1.846,0.221-2.619,0.659
		c-0.772,0.438-1.383,1.063-1.831,1.874c-0.449,0.813-0.673,1.742-0.673,2.791c0,1.05,0.224,1.98,0.673,2.791
		c0.448,0.811,1.059,1.441,1.831,1.889c0.773,0.449,1.646,0.673,2.619,0.673C174.299,19.435,175.167,19.211,175.949,18.762z"/>
	<path fill="#7F7F7F" d="M201.059,14.998h-12.307c0.171,1.336,0.758,2.409,1.76,3.221c1.002,0.811,2.247,1.216,3.735,1.216
		c1.813,0,3.272-0.61,4.379-1.832l1.517,1.774c-0.687,0.802-1.541,1.412-2.562,1.832s-2.16,0.63-3.42,0.63
		c-1.603,0-3.024-0.329-4.265-0.987s-2.199-1.579-2.877-2.762c-0.677-1.184-1.016-2.52-1.016-4.008c0-1.469,0.329-2.795,0.987-3.979
		c0.658-1.183,1.564-2.104,2.719-2.762s2.457-0.987,3.907-0.987s2.743,0.329,3.878,0.987c1.136,0.658,2.022,1.579,2.662,2.762
		c0.64,1.184,0.959,2.538,0.959,4.064C201.116,14.379,201.097,14.654,201.059,14.998z M190.312,9.875
		c-0.888,0.801-1.407,1.851-1.56,3.148h9.731c-0.153-1.278-0.673-2.323-1.561-3.135c-0.887-0.811-1.989-1.216-3.306-1.216
		S191.199,9.073,190.312,9.875z"/>
	<path fill="#7F7F7F" d="M207.006,21.338c-1.145-0.334-2.042-0.758-2.69-1.273l1.146-2.176c0.667,0.478,1.479,0.859,2.433,1.145
		c0.954,0.287,1.918,0.43,2.891,0.43c2.404,0,3.606-0.687,3.606-2.061c0-0.458-0.162-0.82-0.486-1.088
		c-0.325-0.267-0.73-0.463-1.217-0.586c-0.486-0.125-1.178-0.263-2.075-0.416c-1.221-0.189-2.218-0.41-2.99-0.658
		c-0.773-0.248-1.437-0.668-1.989-1.259c-0.554-0.591-0.83-1.421-0.83-2.49c0-1.374,0.572-2.476,1.717-3.306
		c1.146-0.83,2.681-1.245,4.608-1.245c1.011,0,2.022,0.124,3.034,0.372c1.011,0.248,1.841,0.582,2.489,1.002l-1.173,2.175
		c-1.241-0.802-2.7-1.202-4.379-1.202c-1.164,0-2.052,0.191-2.662,0.572c-0.611,0.383-0.916,0.888-0.916,1.518
		c0,0.496,0.172,0.887,0.516,1.174c0.343,0.285,0.768,0.496,1.273,0.629c0.505,0.134,1.216,0.286,2.132,0.458
		c1.221,0.21,2.209,0.435,2.963,0.673c0.753,0.238,1.397,0.645,1.932,1.217s0.802,1.373,0.802,2.404
		c0,1.373-0.587,2.466-1.761,3.276c-1.173,0.812-2.771,1.217-4.794,1.217C209.344,21.839,208.151,21.672,207.006,21.338z"/>
	<path fill="#7F7F7F" d="M221.688,3.063c-0.354-0.344-0.529-0.763-0.529-1.26c0-0.495,0.176-0.92,0.529-1.273
		C222.041,0.177,222.485,0,223.02,0s0.978,0.168,1.331,0.501c0.353,0.335,0.529,0.749,0.529,1.245c0,0.516-0.177,0.949-0.529,1.303
		c-0.354,0.354-0.797,0.529-1.331,0.529S222.041,3.406,221.688,3.063z M221.646,6.498h2.748v15.169h-2.748V6.498z"/>
	<path fill="#7F7F7F" d="M245.01,6.498v13.108c0,2.651-0.658,4.612-1.976,5.882c-1.316,1.269-3.282,1.903-5.896,1.903
		c-1.432,0-2.796-0.196-4.093-0.587c-1.298-0.392-2.348-0.949-3.148-1.674l1.316-2.119c0.705,0.611,1.578,1.093,2.619,1.445
		c1.039,0.354,2.112,0.53,3.22,0.53c1.774,0,3.086-0.42,3.936-1.26c0.849-0.84,1.273-2.118,1.273-3.835V18.69
		c-0.648,0.782-1.445,1.369-2.39,1.761c-0.944,0.391-1.971,0.586-3.077,0.586c-1.45,0-2.762-0.31-3.936-0.93
		s-2.095-1.488-2.762-2.605c-0.668-1.115-1.002-2.389-1.002-3.82s0.334-2.705,1.002-3.821c0.667-1.116,1.588-1.979,2.762-2.591
		c1.174-0.609,2.485-0.915,3.936-0.915c1.145,0,2.208,0.21,3.191,0.63c0.982,0.42,1.789,1.04,2.419,1.859V6.498H245.01z
		 M239.786,18.004c0.791-0.42,1.412-1.007,1.86-1.761c0.448-0.753,0.673-1.607,0.673-2.562c0-1.469-0.487-2.657-1.46-3.563
		c-0.974-0.906-2.224-1.36-3.75-1.36c-1.545,0-2.805,0.454-3.777,1.36c-0.974,0.906-1.46,2.095-1.46,3.563
		c0,0.954,0.224,1.809,0.673,2.562c0.448,0.754,1.068,1.341,1.86,1.761c0.791,0.42,1.693,0.629,2.704,0.629
		C238.102,18.633,238.994,18.424,239.786,18.004z"/>
	<path fill="#7F7F7F" d="M263.683,8.029c1.135,1.115,1.702,2.752,1.702,4.908v8.729h-2.747v-8.415c0-1.469-0.354-2.576-1.06-3.32
		s-1.717-1.115-3.033-1.115c-1.488,0-2.662,0.434-3.521,1.302c-0.859,0.868-1.288,2.113-1.288,3.735v7.813h-2.748V6.498h2.634v2.289
		c0.553-0.782,1.302-1.383,2.246-1.803s2.019-0.63,3.22-0.63C261.016,6.354,262.547,6.912,263.683,8.029z"/>
	<path fill="#7F7F7F" d="M272.405,21.338c-1.145-0.334-2.042-0.758-2.69-1.273l1.146-2.176c0.667,0.478,1.479,0.859,2.433,1.145
		c0.954,0.287,1.918,0.43,2.891,0.43c2.404,0,3.606-0.687,3.606-2.061c0-0.458-0.162-0.82-0.486-1.088
		c-0.325-0.267-0.73-0.463-1.217-0.586c-0.486-0.125-1.178-0.263-2.075-0.416c-1.221-0.189-2.218-0.41-2.99-0.658
		c-0.773-0.248-1.437-0.668-1.989-1.259c-0.554-0.591-0.83-1.421-0.83-2.49c0-1.374,0.572-2.476,1.717-3.306
		c1.146-0.83,2.681-1.245,4.608-1.245c1.011,0,2.022,0.124,3.034,0.372c1.011,0.248,1.841,0.582,2.489,1.002l-1.173,2.175
		c-1.241-0.802-2.7-1.202-4.379-1.202c-1.164,0-2.052,0.191-2.662,0.572c-0.611,0.383-0.916,0.888-0.916,1.518
		c0,0.496,0.172,0.887,0.516,1.174c0.343,0.285,0.768,0.496,1.273,0.629c0.505,0.134,1.216,0.286,2.132,0.458
		c1.221,0.21,2.209,0.435,2.963,0.673c0.753,0.238,1.397,0.645,1.932,1.217s0.802,1.373,0.802,2.404
		c0,1.373-0.587,2.466-1.761,3.276c-1.173,0.812-2.771,1.217-4.794,1.217C274.743,21.839,273.551,21.672,272.405,21.338z"/>
</g>
<g>
	<path fill="#A3A3A3" d="M3.377,21.338c-1.145-0.334-2.042-0.758-2.69-1.273l1.145-2.176c0.667,0.478,1.478,0.859,2.433,1.145
		c0.954,0.287,1.917,0.43,2.891,0.43c2.404,0,3.606-0.687,3.606-2.061c0-0.458-0.162-0.82-0.486-1.088
		c-0.325-0.267-0.73-0.463-1.217-0.586c-0.486-0.125-1.178-0.263-2.075-0.416c-1.222-0.189-2.218-0.41-2.991-0.658
		s-1.436-0.668-1.989-1.259c-0.554-0.591-0.83-1.421-0.83-2.49c0-1.374,0.573-2.476,1.717-3.306c1.145-0.83,2.681-1.245,4.608-1.245
		c1.011,0,2.022,0.124,3.034,0.372c1.011,0.248,1.841,0.582,2.49,1.002L11.85,9.903C10.609,9.102,9.149,8.701,7.47,8.701
		c-1.164,0-2.051,0.191-2.662,0.572c-0.611,0.383-0.916,0.888-0.916,1.518c0,0.496,0.172,0.887,0.515,1.174
		c0.344,0.285,0.768,0.496,1.274,0.629c0.505,0.134,1.216,0.286,2.132,0.458c1.221,0.21,2.208,0.435,2.962,0.673
		s1.398,0.645,1.932,1.217s0.801,1.373,0.801,2.404c0,1.373-0.586,2.466-1.76,3.276c-1.173,0.812-2.771,1.217-4.794,1.217
		C5.714,21.839,4.522,21.672,3.377,21.338z"/>
	<path fill="#A3A3A3" d="M18.06,3.063c-0.353-0.344-0.529-0.763-0.529-1.26c0-0.495,0.176-0.92,0.529-1.273
		C18.413,0.177,18.856,0,19.391,0c0.534,0,0.978,0.168,1.331,0.501c0.353,0.335,0.529,0.749,0.529,1.245
		c0,0.516-0.177,0.949-0.529,1.303c-0.354,0.354-0.797,0.529-1.331,0.529C18.856,3.578,18.413,3.406,18.06,3.063z M18.017,6.498
		h2.748v15.169h-2.748V6.498z"/>
	<path fill="#A3A3A3" d="M50.259,8.014c1.117,1.107,1.675,2.748,1.675,4.924v8.729h-2.748v-8.415c0-1.469-0.339-2.576-1.016-3.32
		s-1.646-1.115-2.905-1.115c-1.393,0-2.5,0.434-3.32,1.302c-0.821,0.868-1.23,2.113-1.23,3.735v7.813h-2.748v-8.415
		c0-1.469-0.339-2.576-1.016-3.32s-1.646-1.115-2.905-1.115c-1.393,0-2.5,0.434-3.32,1.302c-0.821,0.868-1.231,2.113-1.231,3.735
		v7.813h-2.748V6.498h2.633v2.26c0.553-0.781,1.278-1.377,2.175-1.788c0.896-0.41,1.917-0.615,3.063-0.615
		c1.183,0,2.232,0.239,3.148,0.716s1.622,1.173,2.118,2.089c0.572-0.878,1.369-1.564,2.39-2.061c1.021-0.496,2.17-0.744,3.449-0.744
		C47.631,6.354,49.143,6.908,50.259,8.014z"/>
	<path fill="#A3A3A3" d="M60.455,20.837c-1.202-0.667-2.142-1.589-2.819-2.762c-0.678-1.174-1.016-2.505-1.016-3.993
		s0.338-2.818,1.016-3.992c0.677-1.174,1.617-2.09,2.819-2.748s2.557-0.987,4.064-0.987s2.857,0.329,4.05,0.987
		C69.761,8,70.696,8.916,71.374,10.09s1.016,2.504,1.016,3.992s-0.339,2.819-1.016,3.993c-0.677,1.173-1.612,2.095-2.805,2.762
		c-1.193,0.668-2.543,1.002-4.05,1.002S61.657,21.505,60.455,20.837z M67.138,18.762c0.773-0.447,1.378-1.078,1.817-1.889
		s0.658-1.741,0.658-2.791c0-1.049-0.219-1.979-0.658-2.791c-0.439-0.811-1.044-1.436-1.817-1.874s-1.646-0.659-2.619-0.659
		S62.673,8.979,61.9,9.417s-1.384,1.063-1.832,1.874c-0.448,0.813-0.672,1.742-0.672,2.791c0,1.05,0.224,1.98,0.672,2.791
		s1.059,1.441,1.832,1.889c0.773,0.449,1.646,0.673,2.619,0.673S66.365,19.211,67.138,18.762z"/>
	<path fill="#A3A3A3" d="M89.892,8.029c1.135,1.115,1.703,2.752,1.703,4.908v8.729h-2.748v-8.415c0-1.469-0.354-2.576-1.059-3.32
		c-0.707-0.744-1.717-1.115-3.034-1.115c-1.488,0-2.662,0.434-3.521,1.302c-0.858,0.868-1.288,2.113-1.288,3.735v7.813h-2.748V6.498
		h2.633v2.289c0.553-0.782,1.302-1.383,2.247-1.803c0.945-0.42,2.018-0.63,3.22-0.63C87.225,6.354,88.756,6.912,89.892,8.029z"/>
	<path fill="#A3A3A3" d="M110.342,5.181v1.317h4.408v2.26h-4.351v12.909h-2.748V8.758h-2.576v-2.26h2.576V5.152
		c0-1.508,0.438-2.7,1.316-3.578c0.877-0.877,2.108-1.316,3.692-1.316c0.61,0,1.183,0.076,1.717,0.229
		c0.534,0.153,0.992,0.373,1.374,0.658l-0.83,2.09c-0.63-0.477-1.336-0.715-2.118-0.715C111.163,2.52,110.342,3.406,110.342,5.181z"
		/>
	<path fill="#A3A3A3" d="M129.247,7.9c1.117,1.029,1.675,2.566,1.675,4.607v9.159h-2.605v-2.003
		c-0.458,0.705-1.112,1.244-1.96,1.617c-0.849,0.371-1.856,0.558-3.02,0.558c-1.699,0-3.058-0.41-4.079-1.231
		c-1.021-0.82-1.531-1.898-1.531-3.234c0-1.335,0.486-2.408,1.459-3.219c0.973-0.812,2.519-1.217,4.637-1.217h4.351v-0.544
		c0-1.183-0.343-2.089-1.03-2.72c-0.687-0.629-1.699-0.943-3.034-0.943c-0.897,0-1.775,0.147-2.633,0.443
		c-0.859,0.296-1.584,0.691-2.175,1.188l-1.145-2.061c0.782-0.63,1.717-1.111,2.805-1.445c1.087-0.334,2.242-0.501,3.463-0.501
		C126.523,6.354,128.131,6.869,129.247,7.9z M126.514,19.02c0.763-0.467,1.317-1.131,1.66-1.989v-2.118h-4.236
		c-2.328,0-3.492,0.783-3.492,2.348c0,0.763,0.295,1.363,0.887,1.803c0.591,0.439,1.412,0.658,2.461,0.658
		C124.844,19.721,125.75,19.487,126.514,19.02z"/>
	<path fill="#A3A3A3" d="M149.488,8.029c1.135,1.115,1.703,2.752,1.703,4.908v8.729h-2.748v-8.415c0-1.469-0.354-2.576-1.059-3.32
		c-0.707-0.744-1.717-1.115-3.034-1.115c-1.488,0-2.662,0.434-3.521,1.302c-0.858,0.868-1.288,2.113-1.288,3.735v7.813h-2.748V6.498
		h2.633v2.289c0.553-0.782,1.302-1.383,2.247-1.803c0.945-0.42,2.018-0.63,3.22-0.63C146.822,6.354,148.353,6.912,149.488,8.029z"/>
</g>
</svg>
