<?xml version="1.0" encoding="utf-8"?>
<!-- Generator: Adobe Illustrator 16.0.0, SVG Export Plug-In . SVG Version: 6.00 Build 0)  -->
<!DOCTYPE svg PUBLIC "-//W3C//DTD SVG 1.1//EN" "http://www.w3.org/Graphics/SVG/1.1/DTD/svg11.dtd">
<svg version="1.1" id="Layer_1" xmlns="http://www.w3.org/2000/svg" xmlns:xlink="http://www.w3.org/1999/xlink" x="0px" y="0px"
	 width="130.012px" height="129.988px" viewBox="0 0 130.012 129.988" enable-background="new 0 0 130.012 129.988"
	 xml:space="preserve">
<g>
	<path fill="#7F7F7F" d="M0.083,65.003c0-8.211-0.246-16.492,0.108-24.721C0.406,35.312,0.97,30.22,2.41,25.444
		C6.447,11.997,15.933,4.239,29.518,1.44c5.321-1.098,10.739-1.453,16.2-1.438c14.699,0.11,29.416-0.165,44.133,0.128
		c7.633,0.166,15.281,1.207,22.091,5.258c9.425,5.615,14.625,14.063,16.644,24.631c1.04,5.447,1.47,10.953,1.425,16.521
		c-0.109,14.045,0.138,28.055-0.126,42.1c-0.104,6.045-0.593,12.193-2.828,17.992c-4.866,12.465-14.211,19.428-27.105,21.906
		c-5.494,1.057-11.074,1.465-16.705,1.405c-14.138-0.077-28.285,0.216-42.405-0.125c-7.005-0.149-14.044-0.885-20.498-4.127
		c-10.544-5.297-16.613-13.829-18.849-25.256c-1.04-5.153-1.529-10.39-1.438-15.683C0.193,78.175,0.083,71.597,0.083,65.003z
		 M117.51,65.446c0.046,0,0.063,0,0.092,0c0-5.201,0.046-10.4-0.017-15.615c-0.046-5.264-0.075-10.527-0.367-15.807
		c-0.627-10.902-8.029-19.35-18.832-20.82c-6.241-0.84-12.637-0.914-18.982-1.006c-11.521-0.184-23.009-0.201-34.514-0.08
		c-4.327,0.051-8.688,0.418-12.971,1.074c-7.36,1.115-13.112,4.816-16.613,11.607c-2.067,4.012-2.694,8.322-2.74,12.775
		c-0.092,5.586-0.167,11.213-0.121,16.814c0.093,13.947-0.092,27.934,0.519,41.898c0.339,8.551,4.792,15.102,12.85,18.756
		c3.535,1.621,7.315,2.401,11.139,2.401c13.923,0.093,27.842,0.121,41.734,0.076c5.61,0,11.226,0.063,16.812-0.334
		c12.958-0.901,21.923-10.666,22.015-23.744C117.573,84.11,117.51,74.796,117.51,65.446z"/>
	<path fill="#7F7F7F" d="M65.068,31.655c18.59,0,33.289,14.701,33.318,33.318c0,18.541-14.792,33.351-33.318,33.351
		c-18.906,0-33.406-14.73-33.378-33.946C31.719,46.265,46.62,31.64,65.068,31.655z M65.193,43.603
		c-12.118-0.045-21.543,9.27-21.543,21.234c-0.028,12.102,9.258,21.48,21.296,21.555c11.92,0.076,21.603-9.545,21.493-21.389
		C86.364,53.011,77.031,43.603,65.193,43.603z"/>
	<path fill="#7F7F7F" d="M107.351,30.294c0,4.621-3.305,7.971-7.8,7.971c-4.286-0.018-7.803-3.58-7.803-7.879
		c0-4.481,3.458-7.861,7.986-7.787C104.23,22.661,107.38,25.845,107.351,30.294z"/>
</g>
</svg>
