<?xml version="1.0" encoding="utf-8"?>
<!-- Generator: Adobe Illustrator 16.0.0, SVG Export Plug-In . SVG Version: 6.00 Build 0)  -->
<!DOCTYPE svg PUBLIC "-//W3C//DTD SVG 1.1//EN" "http://www.w3.org/Graphics/SVG/1.1/DTD/svg11.dtd">
<svg version="1.1" id="Layer_1" xmlns="http://www.w3.org/2000/svg" xmlns:xlink="http://www.w3.org/1999/xlink" x="0px" y="0px"
	 width="127.184px" height="127.379px" viewBox="0 0 127.184 127.379" enable-background="new 0 0 127.184 127.379"
	 xml:space="preserve">
<g>
	<path fill="#7F7F7F" d="M0,68.614c0-2.732,0-5.465,0-8.197c0.043-0.125,0.11-0.248,0.121-0.377c0.092-1.119,0.09-2.256,0.271-3.361
		c0.4-2.438,0.812-4.879,1.364-7.285c1.165-5.072,3.028-9.896,5.466-14.498c1.703-3.215,3.572-6.328,5.897-9.137
		c1.731-2.094,3.479-4.182,5.329-6.168c1.196-1.285,2.553-2.438,3.913-3.557c1.709-1.404,3.453-2.777,5.265-4.051
		c3.543-2.492,7.313-4.605,11.35-6.186c2.65-1.037,5.361-1.938,8.091-2.74c1.916-0.563,3.898-0.93,5.873-1.254
		c2.024-0.334,4.076-0.508,6.116-0.758c0.148-0.018,0.291-0.08,0.438-0.123c2.731,0,5.465,0,8.196,0
		c0.124,0.043,0.247,0.111,0.375,0.121c1.121,0.092,2.257,0.09,3.362,0.271c2.437,0.4,4.879,0.811,7.284,1.365
		c5.073,1.166,9.896,3.027,14.499,5.465c3.215,1.703,6.328,3.572,9.137,5.898c2.094,1.732,4.182,3.479,6.168,5.328
		c1.287,1.197,2.438,2.553,3.557,3.914c1.404,1.709,2.775,3.455,4.052,5.264c2.496,3.541,4.6,7.318,6.185,11.352
		c1.04,2.646,1.938,5.359,2.741,8.09c0.563,1.916,0.93,3.897,1.255,5.871c0.333,2.025,0.508,4.078,0.757,6.117
		c0.02,0.148,0.08,0.291,0.123,0.438c0,2.732,0,5.465,0,8.198c-0.042,0.081-0.11,0.161-0.121,0.247
		c-0.129,1.32-0.199,2.647-0.389,3.962c-0.289,2.006-0.551,4.026-1.016,5.995c-1.238,5.261-3.056,10.313-5.591,15.103
		c-1.741,3.291-3.639,6.479-6.011,9.356c-1.729,2.097-3.48,4.183-5.331,6.168c-1.184,1.271-2.522,2.41-3.87,3.517
		c-1.728,1.416-3.489,2.799-5.313,4.092c-2.867,2.033-5.917,3.775-9.131,5.205c-1.792,0.797-3.587,1.625-5.45,2.221
		c-2.904,0.93-5.861,1.695-8.81,2.484c-0.829,0.221-1.704,0.277-2.586,0.416c0-14.863,0-29.65,0-44.484c4.961,0,9.882,0,14.849,0
		c0.939-6.123,1.875-12.213,2.823-18.387c-5.971,0-11.815,0-17.687,0c-0.011-0.164-0.022-0.264-0.022-0.363
		c-0.002-3.707-0.028-7.412,0.017-11.117c0.014-1.113,0.129-2.248,0.376-3.334c0.73-3.227,2.665-5.398,5.857-6.422
		c1.582-0.506,3.22-0.531,4.841-0.594c2.188-0.086,4.387-0.021,6.581-0.021c0.22,0,0.439,0,0.669,0c0-5.299,0-10.525,0-15.742
		c-1.591-0.221-3.138-0.475-4.692-0.646c-1.867-0.205-3.74-0.451-5.615-0.48c-3.165-0.047-6.346-0.236-9.485,0.357
		c-3.316,0.627-6.436,1.754-9.229,3.707c-1.919,1.34-3.604,2.926-4.877,4.869c-0.949,1.449-1.753,3.016-2.436,4.609
		c-1.208,2.826-1.715,5.83-1.873,8.891c-0.052,0.973-0.009,1.951-0.009,2.926c0,4.225,0,8.447,0,12.67c0,0.219,0,0.438,0,0.726
		c-5.43,0-10.776,0-16.111,0c0,6.147,0,12.225,0,18.373c5.382,0,10.729,0,16.085,0c0,14.842,0,29.615,0,44.438
		c-0.164,0-0.308,0.021-0.441-0.004c-1.295-0.242-2.598-0.449-3.877-0.75c-4.783-1.131-9.399-2.744-13.809-4.918
		c-2.858-1.41-5.646-2.965-8.206-4.871c-2.188-1.625-4.333-3.311-6.421-5.064c-1.176-0.986-2.239-2.117-3.271-3.258
		c-1.66-1.836-3.336-3.666-4.854-5.615c-2.271-2.918-4.188-6.08-5.879-9.367c-0.845-1.637-1.611-3.323-2.256-5.049
		c-0.911-2.438-1.763-4.91-2.479-7.412c-0.552-1.922-0.929-3.899-1.254-5.875c-0.333-2.024-0.508-4.078-0.757-6.119
		C0.104,68.901,0.043,68.758,0,68.614z"/>
</g>
</svg>
